<?xml version="1.0" standalone="no"?>
<!DOCTYPE svg PUBLIC "-//W3C//DTD SVG 20010904//EN"
 "http://www.w3.org/TR/2001/REC-SVG-20010904/DTD/svg10.dtd">
<svg version="1.0" xmlns="http://www.w3.org/2000/svg"
 width="1280.000000pt" height="986.000000pt" viewBox="0 0 1280.000000 986.000000"
 preserveAspectRatio="xMidYMid meet">
<g transform="translate(0.000000,986.000000) scale(0.100000,-0.100000)"
fill="#000000" stroke="none">
<path d="M11455 9841 c-28 -10 -68 -27 -90 -39 -45 -23 -139 -117 -175 -177
-13 -22 -173 -406 -355 -855 l-331 -815 -5149 -5 c-4027 -4 -5156 -8 -5177
-17 -37 -16 -116 -90 -134 -124 -26 -52 -46 -122 -41 -148 21 -109 74 -300
102 -371 19 -47 280 -897 580 -1890 301 -993 612 -2021 692 -2285 141 -462
146 -484 153 -596 9 -142 29 -195 89 -235 56 -37 114 -40 574 -34 342 4 412 2
396 -14 -2 -3 -43 -21 -89 -41 -441 -189 -719 -667 -671 -1152 29 -287 150
-537 353 -729 94 -89 175 -144 292 -200 109 -51 192 -75 348 -99 116 -18 117
-18 249 4 216 36 362 95 514 209 208 155 349 364 422 628 26 93 28 111 27 294
0 179 -2 203 -26 293 -65 238 -207 456 -393 604 -73 58 -242 153 -322 181 -18
6 -33 15 -33 20 0 12 380 20 1665 32 2179 21 2460 23 2450 12 -5 -5 -48 -17
-95 -27 -253 -50 -483 -189 -647 -390 -92 -113 -182 -290 -220 -430 -25 -92
-27 -115 -27 -295 -1 -183 1 -201 27 -294 55 -199 145 -361 277 -500 179 -188
384 -292 667 -338 132 -22 133 -22 245 -4 155 26 237 50 345 101 110 52 176
94 262 169 507 439 520 1244 28 1703 -165 153 -329 236 -564 283 -54 11 -102
20 -108 21 -5 1 4 5 20 9 17 4 185 9 375 10 190 1 486 5 658 9 l312 6 78 80
77 81 1104 2459 c608 1353 1111 2480 1120 2505 28 86 466 1062 479 1067 14 6
326 -317 421 -437 60 -74 167 -110 267 -90 50 10 66 20 104 59 78 80 153 277
201 524 31 161 28 169 -122 317 -74 74 -178 195 -288 338 -95 123 -212 263
-261 311 -135 136 -324 255 -476 300 -85 25 -113 25 -179 2z m-1405 -2816 c0
-14 -310 -788 -329 -822 -6 -11 -731 -13 -4146 -13 -2277 0 -4142 4 -4146 8
-13 12 -220 814 -215 829 5 11 739 13 4421 13 3977 0 4415 -2 4415 -15z m-715
-1755 c7 -11 -223 -582 -239 -592 -6 -4 -1641 -8 -3632 -8 -2912 0 -3624 2
-3632 13 -14 17 -163 578 -156 589 7 12 7651 10 7659 -2z m-615 -1526 c0 -24
-229 -577 -242 -586 -7 -4 -1411 -8 -3119 -8 -2469 0 -3109 3 -3122 13 -18 13
-171 573 -161 589 3 4 1499 8 3325 8 2994 0 3319 -2 3319 -16z"/>
</g>
</svg>
