<?xml version="1.0" standalone="no"?>
<!DOCTYPE svg PUBLIC "-//W3C//DTD SVG 20010904//EN"
 "http://www.w3.org/TR/2001/REC-SVG-20010904/DTD/svg10.dtd">
<svg version="1.0" xmlns="http://www.w3.org/2000/svg"
 width="992.000000pt" height="1280.000000pt" viewBox="0 0 992.000000 1280.000000"
 preserveAspectRatio="xMidYMid meet">
<g transform="translate(0.000000,1280.000000) scale(0.100000,-0.100000)"
fill="#000000" stroke="none">
<path d="M4770 12788 c-36 -5 -129 -18 -208 -29 -860 -118 -1627 -678 -2017
-1474 -183 -373 -261 -692 -272 -1111 -12 -475 70 -857 272 -1269 257 -522
676 -946 1195 -1209 228 -116 444 -191 690 -240 198 -39 311 -50 530 -50 219
0 332 11 530 50 997 199 1808 957 2069 1935 73 271 96 477 88 783 -6 239 -24
378 -77 586 -266 1052 -1156 1855 -2217 2000 -81 11 -182 24 -223 30 -89 12
-269 11 -360 -2z"/>
<path d="M4645 7129 c-544 -43 -1092 -203 -1593 -465 -1202 -628 -2164 -1829
-2662 -3324 -234 -702 -351 -1379 -387 -2245 -5 -135 -4 -142 20 -198 16 -34
48 -79 79 -110 381 -379 1937 -683 3873 -757 154 -6 375 -15 490 -20 269 -13
721 -13 990 0 116 5 336 14 490 20 1936 74 3492 378 3873 757 31 31 63 76 79
110 24 56 25 63 20 198 -13 313 -43 664 -78 915 -204 1479 -825 2802 -1757
3743 -395 399 -765 677 -1214 911 -694 362 -1467 524 -2223 465z"/>
</g>
</svg>
